<mxfile host="app.diagrams.net" modified="2021-11-15T12:02:11.205Z" agent="5.0 (Macintosh; Intel Mac OS X 10_15_7) AppleWebKit/537.36 (KHTML, like Gecko) Chrome/86.0.4240.193 Safari/537.36" etag="5fSuTC0XCcw_VvKKkif0" version="15.7.3" type="github">
  <diagram id="2tU0TM2oi-BF1VvAEsz0" name="Page-1">
    <mxGraphModel dx="1773" dy="536" grid="1" gridSize="10" guides="1" tooltips="1" connect="1" arrows="1" fold="1" page="1" pageScale="1" pageWidth="827" pageHeight="1169" math="0" shadow="0">
      <root>
        <mxCell id="0" />
        <mxCell id="1" parent="0" />
        <mxCell id="yr4FHtApJgTNxW3L6D0K-2" value="RebalanceImpl#rebalanceByTopic" style="text;html=1;strokeColor=none;fillColor=none;align=center;verticalAlign=middle;whiteSpace=wrap;rounded=0;" vertex="1" parent="1">
          <mxGeometry x="194" y="70" width="220" height="30" as="geometry" />
        </mxCell>
        <mxCell id="yr4FHtApJgTNxW3L6D0K-3" value="" style="html=1;align=center;verticalAlign=top;rounded=1;absoluteArcSize=1;arcSize=20;dashed=1;" vertex="1" parent="1">
          <mxGeometry x="100" y="100" width="370" height="250" as="geometry" />
        </mxCell>
        <mxCell id="yr4FHtApJgTNxW3L6D0K-15" style="edgeStyle=orthogonalEdgeStyle;rounded=0;orthogonalLoop=1;jettySize=auto;html=1;exitX=1;exitY=0.5;exitDx=0;exitDy=0;" edge="1" parent="1" source="yr4FHtApJgTNxW3L6D0K-4" target="yr4FHtApJgTNxW3L6D0K-6">
          <mxGeometry relative="1" as="geometry" />
        </mxCell>
        <mxCell id="yr4FHtApJgTNxW3L6D0K-16" style="edgeStyle=orthogonalEdgeStyle;rounded=0;orthogonalLoop=1;jettySize=auto;html=1;exitX=1;exitY=0.5;exitDx=0;exitDy=0;entryX=0;entryY=0.5;entryDx=0;entryDy=0;" edge="1" parent="1" source="yr4FHtApJgTNxW3L6D0K-4" target="yr4FHtApJgTNxW3L6D0K-7">
          <mxGeometry relative="1" as="geometry" />
        </mxCell>
        <mxCell id="yr4FHtApJgTNxW3L6D0K-4" value="topicA" style="rounded=0;whiteSpace=wrap;html=1;fillColor=#d5e8d4;strokeColor=#82b366;" vertex="1" parent="1">
          <mxGeometry x="140" y="150" width="70" height="40" as="geometry" />
        </mxCell>
        <mxCell id="yr4FHtApJgTNxW3L6D0K-18" style="edgeStyle=orthogonalEdgeStyle;rounded=0;orthogonalLoop=1;jettySize=auto;html=1;exitX=1;exitY=0.5;exitDx=0;exitDy=0;entryX=0;entryY=0.5;entryDx=0;entryDy=0;" edge="1" parent="1" source="yr4FHtApJgTNxW3L6D0K-5" target="yr4FHtApJgTNxW3L6D0K-8">
          <mxGeometry relative="1" as="geometry" />
        </mxCell>
        <mxCell id="yr4FHtApJgTNxW3L6D0K-19" style="edgeStyle=orthogonalEdgeStyle;rounded=0;orthogonalLoop=1;jettySize=auto;html=1;exitX=1;exitY=0.5;exitDx=0;exitDy=0;entryX=0;entryY=0.5;entryDx=0;entryDy=0;" edge="1" parent="1" source="yr4FHtApJgTNxW3L6D0K-5" target="yr4FHtApJgTNxW3L6D0K-9">
          <mxGeometry relative="1" as="geometry" />
        </mxCell>
        <mxCell id="yr4FHtApJgTNxW3L6D0K-5" value="topicB" style="rounded=0;whiteSpace=wrap;html=1;fillColor=#d5e8d4;strokeColor=#82b366;" vertex="1" parent="1">
          <mxGeometry x="140" y="250" width="70" height="40" as="geometry" />
        </mxCell>
        <mxCell id="yr4FHtApJgTNxW3L6D0K-36" style="edgeStyle=orthogonalEdgeStyle;rounded=0;orthogonalLoop=1;jettySize=auto;html=1;exitX=1;exitY=0.5;exitDx=0;exitDy=0;entryX=0;entryY=0.5;entryDx=0;entryDy=0;" edge="1" parent="1" source="yr4FHtApJgTNxW3L6D0K-6" target="yr4FHtApJgTNxW3L6D0K-20">
          <mxGeometry relative="1" as="geometry" />
        </mxCell>
        <mxCell id="yr4FHtApJgTNxW3L6D0K-6" value="queue1" style="rounded=0;whiteSpace=wrap;html=1;fillColor=#d5e8d4;strokeColor=#82b366;" vertex="1" parent="1">
          <mxGeometry x="250" y="120" width="70" height="30" as="geometry" />
        </mxCell>
        <mxCell id="yr4FHtApJgTNxW3L6D0K-37" style="edgeStyle=orthogonalEdgeStyle;rounded=0;orthogonalLoop=1;jettySize=auto;html=1;exitX=1;exitY=0.5;exitDx=0;exitDy=0;entryX=0;entryY=0.5;entryDx=0;entryDy=0;" edge="1" parent="1" source="yr4FHtApJgTNxW3L6D0K-7" target="yr4FHtApJgTNxW3L6D0K-22">
          <mxGeometry relative="1" as="geometry" />
        </mxCell>
        <mxCell id="yr4FHtApJgTNxW3L6D0K-7" value="queue2" style="rounded=0;whiteSpace=wrap;html=1;fillColor=#d5e8d4;strokeColor=#82b366;" vertex="1" parent="1">
          <mxGeometry x="250" y="170" width="70" height="30" as="geometry" />
        </mxCell>
        <mxCell id="yr4FHtApJgTNxW3L6D0K-38" style="edgeStyle=orthogonalEdgeStyle;rounded=0;orthogonalLoop=1;jettySize=auto;html=1;exitX=1;exitY=0.5;exitDx=0;exitDy=0;entryX=0;entryY=0.5;entryDx=0;entryDy=0;" edge="1" parent="1" source="yr4FHtApJgTNxW3L6D0K-8" target="yr4FHtApJgTNxW3L6D0K-23">
          <mxGeometry relative="1" as="geometry" />
        </mxCell>
        <mxCell id="yr4FHtApJgTNxW3L6D0K-8" value="queue1" style="rounded=0;whiteSpace=wrap;html=1;fillColor=#d5e8d4;strokeColor=#82b366;" vertex="1" parent="1">
          <mxGeometry x="250" y="230" width="70" height="30" as="geometry" />
        </mxCell>
        <mxCell id="yr4FHtApJgTNxW3L6D0K-39" style="edgeStyle=orthogonalEdgeStyle;rounded=0;orthogonalLoop=1;jettySize=auto;html=1;exitX=1;exitY=0.5;exitDx=0;exitDy=0;entryX=0;entryY=0.5;entryDx=0;entryDy=0;" edge="1" parent="1" source="yr4FHtApJgTNxW3L6D0K-9" target="yr4FHtApJgTNxW3L6D0K-24">
          <mxGeometry relative="1" as="geometry" />
        </mxCell>
        <mxCell id="yr4FHtApJgTNxW3L6D0K-9" value="queue2" style="rounded=0;whiteSpace=wrap;html=1;fillColor=#d5e8d4;strokeColor=#82b366;" vertex="1" parent="1">
          <mxGeometry x="250" y="280" width="70" height="30" as="geometry" />
        </mxCell>
        <mxCell id="yr4FHtApJgTNxW3L6D0K-10" value="" style="html=1;align=center;verticalAlign=top;rounded=1;absoluteArcSize=1;arcSize=20;dashed=1;" vertex="1" parent="1">
          <mxGeometry x="480" y="100" width="270" height="250" as="geometry" />
        </mxCell>
        <mxCell id="yr4FHtApJgTNxW3L6D0K-11" value="&lt;pre&gt;PullMessageService&lt;/pre&gt;" style="text;html=1;align=center;verticalAlign=middle;resizable=0;points=[];autosize=1;strokeColor=none;fillColor=none;" vertex="1" parent="1">
          <mxGeometry x="543" y="60" width="150" height="40" as="geometry" />
        </mxCell>
        <mxCell id="yr4FHtApJgTNxW3L6D0K-12" value="" style="html=1;align=center;verticalAlign=top;rounded=1;absoluteArcSize=1;arcSize=20;dashed=1;" vertex="1" parent="1">
          <mxGeometry x="770" y="100" width="270" height="250" as="geometry" />
        </mxCell>
        <mxCell id="yr4FHtApJgTNxW3L6D0K-47" style="edgeStyle=orthogonalEdgeStyle;rounded=0;orthogonalLoop=1;jettySize=auto;html=1;exitX=0.5;exitY=1;exitDx=0;exitDy=0;" edge="1" parent="1" source="yr4FHtApJgTNxW3L6D0K-13" target="yr4FHtApJgTNxW3L6D0K-14">
          <mxGeometry relative="1" as="geometry" />
        </mxCell>
        <mxCell id="yr4FHtApJgTNxW3L6D0K-13" value="&lt;pre&gt;pullMessage(PullRequest)方法&lt;/pre&gt;&lt;pre&gt;从阻塞队列中不断获取PullRequest&lt;/pre&gt;&lt;pre&gt;执行拉取请求&lt;/pre&gt;" style="rounded=0;whiteSpace=wrap;html=1;fillColor=#ffe6cc;strokeColor=#d79b00;" vertex="1" parent="1">
          <mxGeometry x="800" y="145" width="210" height="80" as="geometry" />
        </mxCell>
        <mxCell id="yr4FHtApJgTNxW3L6D0K-50" style="edgeStyle=none;rounded=0;orthogonalLoop=1;jettySize=auto;html=1;exitX=0;exitY=0.5;exitDx=0;exitDy=0;entryX=1;entryY=0.789;entryDx=0;entryDy=0;entryPerimeter=0;" edge="1" parent="1" source="yr4FHtApJgTNxW3L6D0K-14" target="yr4FHtApJgTNxW3L6D0K-21">
          <mxGeometry relative="1" as="geometry" />
        </mxCell>
        <mxCell id="yr4FHtApJgTNxW3L6D0K-14" value="&lt;pre&gt;&lt;pre&gt;PullCallback类&lt;/pre&gt;&lt;pre&gt;消费拉取到的消息&lt;/pre&gt;&lt;pre&gt;将PullRequest再次放入阻塞队列&lt;/pre&gt;&lt;/pre&gt;" style="rounded=0;whiteSpace=wrap;html=1;fillColor=#ffe6cc;strokeColor=#d79b00;" vertex="1" parent="1">
          <mxGeometry x="800" y="240" width="210" height="80" as="geometry" />
        </mxCell>
        <mxCell id="yr4FHtApJgTNxW3L6D0K-42" style="edgeStyle=orthogonalEdgeStyle;rounded=0;orthogonalLoop=1;jettySize=auto;html=1;exitX=1;exitY=0.5;exitDx=0;exitDy=0;entryX=0;entryY=0.5;entryDx=0;entryDy=0;" edge="1" parent="1" source="yr4FHtApJgTNxW3L6D0K-20" target="yr4FHtApJgTNxW3L6D0K-21">
          <mxGeometry relative="1" as="geometry" />
        </mxCell>
        <mxCell id="yr4FHtApJgTNxW3L6D0K-20" value="&lt;pre&gt;PullRequest1&lt;/pre&gt;" style="rounded=0;whiteSpace=wrap;html=1;fillColor=#fff2cc;strokeColor=#d6b656;" vertex="1" parent="1">
          <mxGeometry x="344" y="120" width="96" height="30" as="geometry" />
        </mxCell>
        <mxCell id="yr4FHtApJgTNxW3L6D0K-46" style="rounded=0;orthogonalLoop=1;jettySize=auto;html=1;exitX=1;exitY=0.25;exitDx=0;exitDy=0;entryX=0;entryY=0.5;entryDx=0;entryDy=0;" edge="1" parent="1" source="yr4FHtApJgTNxW3L6D0K-21" target="yr4FHtApJgTNxW3L6D0K-13">
          <mxGeometry relative="1" as="geometry" />
        </mxCell>
        <mxCell id="yr4FHtApJgTNxW3L6D0K-21" value="" style="rounded=0;whiteSpace=wrap;html=1;" vertex="1" parent="1">
          <mxGeometry x="547.5" y="140" width="142.5" height="180" as="geometry" />
        </mxCell>
        <mxCell id="yr4FHtApJgTNxW3L6D0K-43" style="edgeStyle=orthogonalEdgeStyle;rounded=0;orthogonalLoop=1;jettySize=auto;html=1;exitX=1;exitY=0.5;exitDx=0;exitDy=0;entryX=0;entryY=0.5;entryDx=0;entryDy=0;" edge="1" parent="1" source="yr4FHtApJgTNxW3L6D0K-22" target="yr4FHtApJgTNxW3L6D0K-21">
          <mxGeometry relative="1" as="geometry" />
        </mxCell>
        <mxCell id="yr4FHtApJgTNxW3L6D0K-22" value="&lt;pre&gt;PullRequest2&lt;/pre&gt;" style="rounded=0;whiteSpace=wrap;html=1;fillColor=#fff2cc;strokeColor=#d6b656;" vertex="1" parent="1">
          <mxGeometry x="344" y="170" width="96" height="30" as="geometry" />
        </mxCell>
        <mxCell id="yr4FHtApJgTNxW3L6D0K-44" style="edgeStyle=orthogonalEdgeStyle;rounded=0;orthogonalLoop=1;jettySize=auto;html=1;exitX=1;exitY=0.5;exitDx=0;exitDy=0;entryX=0;entryY=0.5;entryDx=0;entryDy=0;" edge="1" parent="1" source="yr4FHtApJgTNxW3L6D0K-23" target="yr4FHtApJgTNxW3L6D0K-21">
          <mxGeometry relative="1" as="geometry" />
        </mxCell>
        <mxCell id="yr4FHtApJgTNxW3L6D0K-23" value="&lt;pre&gt;PullRequest3&lt;/pre&gt;" style="rounded=0;whiteSpace=wrap;html=1;fillColor=#fff2cc;strokeColor=#d6b656;" vertex="1" parent="1">
          <mxGeometry x="344" y="230" width="96" height="30" as="geometry" />
        </mxCell>
        <mxCell id="yr4FHtApJgTNxW3L6D0K-45" style="edgeStyle=orthogonalEdgeStyle;rounded=0;orthogonalLoop=1;jettySize=auto;html=1;exitX=1;exitY=0.5;exitDx=0;exitDy=0;entryX=0;entryY=0.5;entryDx=0;entryDy=0;" edge="1" parent="1" source="yr4FHtApJgTNxW3L6D0K-24" target="yr4FHtApJgTNxW3L6D0K-21">
          <mxGeometry relative="1" as="geometry" />
        </mxCell>
        <mxCell id="yr4FHtApJgTNxW3L6D0K-24" value="&lt;pre&gt;PullRequest4&lt;/pre&gt;" style="rounded=0;whiteSpace=wrap;html=1;fillColor=#fff2cc;strokeColor=#d6b656;" vertex="1" parent="1">
          <mxGeometry x="344" y="280" width="96" height="30" as="geometry" />
        </mxCell>
        <mxCell id="yr4FHtApJgTNxW3L6D0K-25" value="&lt;pre&gt;PullRequest4&lt;/pre&gt;" style="rounded=0;whiteSpace=wrap;html=1;fillColor=#fff2cc;strokeColor=#d6b656;" vertex="1" parent="1">
          <mxGeometry x="570.75" y="270" width="96" height="30" as="geometry" />
        </mxCell>
        <mxCell id="yr4FHtApJgTNxW3L6D0K-26" value="&lt;pre&gt;PullRequest3&lt;/pre&gt;" style="rounded=0;whiteSpace=wrap;html=1;fillColor=#fff2cc;strokeColor=#d6b656;" vertex="1" parent="1">
          <mxGeometry x="570" y="230" width="96" height="30" as="geometry" />
        </mxCell>
        <mxCell id="yr4FHtApJgTNxW3L6D0K-27" value="&lt;pre&gt;PullRequest2&lt;/pre&gt;" style="rounded=0;whiteSpace=wrap;html=1;fillColor=#fff2cc;strokeColor=#d6b656;" vertex="1" parent="1">
          <mxGeometry x="570" y="190" width="96" height="30" as="geometry" />
        </mxCell>
        <mxCell id="yr4FHtApJgTNxW3L6D0K-28" value="&lt;pre&gt;PullRequest1&lt;/pre&gt;" style="rounded=0;whiteSpace=wrap;html=1;fillColor=#fff2cc;strokeColor=#d6b656;" vertex="1" parent="1">
          <mxGeometry x="570" y="150" width="96" height="30" as="geometry" />
        </mxCell>
        <mxCell id="yr4FHtApJgTNxW3L6D0K-29" value="阻塞队列，存放&lt;span&gt;PullRequest&lt;/span&gt;" style="text;html=1;strokeColor=none;fillColor=none;align=center;verticalAlign=middle;whiteSpace=wrap;rounded=0;" vertex="1" parent="1">
          <mxGeometry x="531.25" y="100" width="175" height="30" as="geometry" />
        </mxCell>
        <mxCell id="yr4FHtApJgTNxW3L6D0K-30" value="&lt;pre&gt;&lt;pre&gt;DefaultMQPushConsumerImpl&lt;/pre&gt;&lt;/pre&gt;" style="text;html=1;align=center;verticalAlign=middle;resizable=0;points=[];autosize=1;strokeColor=none;fillColor=none;" vertex="1" parent="1">
          <mxGeometry x="805" y="60" width="200" height="40" as="geometry" />
        </mxCell>
        <mxCell id="yr4FHtApJgTNxW3L6D0K-34" style="edgeStyle=orthogonalEdgeStyle;rounded=0;orthogonalLoop=1;jettySize=auto;html=1;exitX=1;exitY=0.5;exitDx=0;exitDy=0;entryX=0;entryY=0.5;entryDx=0;entryDy=0;" edge="1" parent="1" source="yr4FHtApJgTNxW3L6D0K-33" target="yr4FHtApJgTNxW3L6D0K-4">
          <mxGeometry relative="1" as="geometry" />
        </mxCell>
        <mxCell id="yr4FHtApJgTNxW3L6D0K-35" style="edgeStyle=orthogonalEdgeStyle;rounded=0;orthogonalLoop=1;jettySize=auto;html=1;exitX=1;exitY=0.5;exitDx=0;exitDy=0;entryX=0;entryY=0.5;entryDx=0;entryDy=0;" edge="1" parent="1" source="yr4FHtApJgTNxW3L6D0K-33" target="yr4FHtApJgTNxW3L6D0K-5">
          <mxGeometry relative="1" as="geometry" />
        </mxCell>
        <mxCell id="yr4FHtApJgTNxW3L6D0K-33" value="&lt;pre&gt;RebalanceService&lt;/pre&gt;&lt;pre&gt;&lt;pre&gt;DefaultMQPushConsumer#start后启动RebalanceService&lt;/pre&gt;&lt;pre&gt;RebalanceService启动后立即开始执行一次重平衡&lt;/pre&gt;&lt;pre&gt;后续每隔20s执行一次重平衡&lt;/pre&gt;&lt;pre&gt;&lt;br&gt;&lt;/pre&gt;&lt;/pre&gt;" style="rounded=0;whiteSpace=wrap;html=1;fillColor=#ffe6cc;strokeColor=#d79b00;" vertex="1" parent="1">
          <mxGeometry x="-370" y="160" width="400" height="130" as="geometry" />
        </mxCell>
      </root>
    </mxGraphModel>
  </diagram>
</mxfile>
